<svg width="190" height="59" viewBox="0 0 285 59" fill="none" xmlns="http://www.w3.org/2000/svg">
<g filter="url(#filter0_i_1_24)">
<path d="M25.1265 11.6L39.0885 48H29.8325L27.0765 40.356H12.6205L9.86453 48H0.790527L14.7525 11.6H25.1265ZM19.8485 20.232L15.4285 32.504H24.2685L19.8485 20.232Z" fill="url(#paint0_linear_1_24)"/>
<path d="M65.8645 22.494V37.08C65.8645 45.062 60.3525 48.676 53.5665 48.676C46.7545 48.676 41.2425 45.062 41.2425 37.054V22.494H49.3805V36.352C49.3805 39.602 51.1225 41.084 53.5665 41.084C55.9845 41.084 57.7525 39.602 57.7525 36.352V22.494H65.8645Z" fill="url(#paint1_linear_1_24)"/>
<path d="M90.9894 22.494V29.696H82.2794V37.158C82.2794 40.096 83.8394 41.084 85.8934 41.084C87.4014 41.084 89.0394 40.252 90.3134 39.498L93.1214 45.842C90.7294 47.506 88.1814 48.676 84.0734 48.676C77.2354 48.676 74.1414 44.594 74.1414 38.198V29.696H69.3834V22.494H74.1414V15.058H82.2794V22.494H90.9894Z" fill="url(#paint2_linear_1_24)"/>
<path d="M108.139 21.792C116.121 21.792 121.997 27.512 121.997 35.234C121.997 42.956 116.121 48.676 108.139 48.676C100.183 48.676 94.3068 42.956 94.3068 35.234C94.3068 27.512 100.183 21.792 108.139 21.792ZM108.139 29.384C104.967 29.384 102.627 31.802 102.627 35.234C102.627 38.666 104.967 41.084 108.139 41.084C111.337 41.084 113.677 38.666 113.677 35.234C113.677 31.802 111.337 29.384 108.139 29.384Z" fill="url(#paint3_linear_1_24)"/>
<path d="M136.567 21.792C139.921 21.792 142.183 23.17 143.691 25.146V22.494H151.569V45.556C151.569 53.928 146.083 58.92 137.737 58.92C133.473 58.92 129.131 57.828 126.089 55.67L128.975 49.196C131.471 50.964 134.149 51.796 137.165 51.796C140.467 51.796 143.587 49.976 143.587 45.92V44.334C142.079 46.258 139.843 47.558 136.567 47.558C129.729 47.558 124.737 41.916 124.737 34.688C124.737 27.46 129.729 21.792 136.567 21.792ZM138.491 29.228C135.319 29.228 133.135 31.568 133.135 34.688C133.135 37.782 135.319 40.148 138.491 40.148C141.559 40.148 143.691 37.834 143.691 34.688C143.691 31.542 141.559 29.228 138.491 29.228Z" fill="#1A1A1A"/>
<path d="M172.036 21.792C173.232 21.792 174.272 22 174.896 22.182L174.142 30.294C173.05 29.93 171.516 29.618 170.06 29.618C167.174 29.618 165.406 31.048 165.406 34.22V48H157.268V22.494H165.068V25.432C166.55 22.962 168.916 21.792 172.036 21.792Z" fill="#1A1A1A"/>
<path d="M203.65 22.494V48H195.772V45.244C194.238 47.246 191.898 48.676 188.44 48.676C181.628 48.676 176.584 42.748 176.584 35.208C176.584 27.72 181.628 21.792 188.466 21.792C191.898 21.792 194.238 23.248 195.772 25.25V22.494H203.65ZM190.39 29.384C187.14 29.384 184.956 31.906 184.956 35.234C184.956 38.562 187.14 41.084 190.39 41.084C193.588 41.084 195.85 38.614 195.85 35.234C195.85 31.854 193.588 29.384 190.39 29.384Z" fill="#1A1A1A"/>
<path d="M240.571 21.792C246.395 21.792 250.087 25.38 250.087 31.256V48H241.949V34.142C241.949 31.126 240.441 29.436 237.893 29.436C235.657 29.436 233.759 30.97 233.759 34.272V48H225.621V34.142C225.621 31.126 224.113 29.436 221.591 29.436C219.329 29.436 217.457 30.97 217.457 34.272V48H209.319V22.494H217.119V25.692C218.731 23.014 221.305 21.792 224.711 21.792C228.065 21.792 230.925 23.326 232.485 26.056C234.201 23.118 237.061 21.792 240.571 21.792Z" fill="#1A1A1A"/>
</g>
<path d="M246 5.72727C246 2.56419 248.546 0 251.688 0H279.312C282.454 0 285 2.56419 285 5.72727V12.2727C285 15.4358 282.454 18 279.312 18H251.687C248.546 18 246 15.4358 246 12.2727V5.72727Z" fill="#1A1A1A"/>
<path d="M250.544 5.07273H253.797C255.651 5.07273 256.817 5.76573 256.817 7.29491C256.817 8.10245 256.328 8.74964 255.662 8.99591C256.39 9.24218 256.988 9.92945 256.988 10.7943C256.988 12.3349 255.901 13.0909 253.99 13.0909H250.544V5.07273ZM253.911 9.75764H252.131V11.682L253.911 11.6877C254.787 11.6877 255.338 11.4815 255.338 10.7141C255.338 9.96382 254.787 9.75764 253.911 9.75764ZM253.751 6.48164H252.131V8.35445H253.757C254.548 8.35445 255.162 8.18836 255.162 7.40945C255.162 6.65345 254.536 6.48164 253.751 6.48164Z" fill="white"/>
<path d="M264.937 11.6247V13.0909H258.988V5.07273H264.892V6.53891H260.575V8.31436H264.693V9.78054H260.575V11.6247H264.937Z" fill="white"/>
<path d="M272.934 5.07273V6.56754H270.466V13.0909H268.879V6.56754H266.411V5.07273H272.934Z" fill="white"/>
<path d="M278.138 5.07273L281.237 13.0909H279.543L278.849 11.2238H275.453L274.759 13.0909H273.104L276.204 5.07273H278.138ZM277.154 6.65345L275.999 9.75191H278.303L277.154 6.65345Z" fill="white"/>
<defs>
<filter id="filter0_i_1_24" x="0.790527" y="11.6" width="249.296" height="49.32" filterUnits="userSpaceOnUse" color-interpolation-filters="sRGB">
<feFlood flood-opacity="0" result="BackgroundImageFix"/>
<feBlend mode="normal" in="SourceGraphic" in2="BackgroundImageFix" result="shape"/>
<feColorMatrix in="SourceAlpha" type="matrix" values="0 0 0 0 0 0 0 0 0 0 0 0 0 0 0 0 0 0 127 0" result="hardAlpha"/>
<feOffset dy="2"/>
<feGaussianBlur stdDeviation="1.5"/>
<feComposite in2="hardAlpha" operator="arithmetic" k2="-1" k3="1"/>
<feColorMatrix type="matrix" values="0 0 0 0 0 0 0 0 0 0 0 0 0 0 0 0 0 0 0.2 0"/>
<feBlend mode="plus-darker" in2="shape" result="effect1_innerShadow_1_24"/>
</filter>
<linearGradient id="paint0_linear_1_24" x1="-72.5911" y1="27.0148" x2="-30.5625" y2="-94.3608" gradientUnits="userSpaceOnUse">
<stop offset="0.05" stop-color="#C837AB"/>
<stop offset="0.32" stop-color="#FF543E"/>
<stop offset="0.69" stop-color="#FFDD55"/>
</linearGradient>
<linearGradient id="paint1_linear_1_24" x1="-72.5911" y1="27.0148" x2="-30.5625" y2="-94.3608" gradientUnits="userSpaceOnUse">
<stop offset="0.05" stop-color="#C837AB"/>
<stop offset="0.32" stop-color="#FF543E"/>
<stop offset="0.69" stop-color="#FFDD55"/>
</linearGradient>
<linearGradient id="paint2_linear_1_24" x1="-72.5911" y1="27.0148" x2="-30.5625" y2="-94.3608" gradientUnits="userSpaceOnUse">
<stop offset="0.05" stop-color="#C837AB"/>
<stop offset="0.32" stop-color="#FF543E"/>
<stop offset="0.69" stop-color="#FFDD55"/>
</linearGradient>
<linearGradient id="paint3_linear_1_24" x1="-72.5911" y1="27.0148" x2="-30.5625" y2="-94.3608" gradientUnits="userSpaceOnUse">
<stop offset="0.05" stop-color="#C837AB"/>
<stop offset="0.32" stop-color="#FF543E"/>
<stop offset="0.69" stop-color="#FFDD55"/>
</linearGradient>
</defs>
</svg>
