<svg width="300" height="55" viewBox="0 0 272 55" fill="none" xmlns="http://www.w3.org/2000/svg">
    <path
        d="M1.41477 13H0.306818L3.51136 4.27273H4.60227L7.80682 13H6.69886L4.09091 5.65341H4.02273L1.41477 13ZM1.82386 9.59091H6.28977V10.5284H1.82386V9.59091ZM9.02983 15.4545V6.45455H10.0014V7.49432H10.1207C10.1946 7.38068 10.2969 7.2358 10.4276 7.05966C10.5611 6.88068 10.7514 6.72159 10.9986 6.58239C11.2486 6.44034 11.5866 6.36932 12.0128 6.36932C12.5639 6.36932 13.0497 6.5071 13.4702 6.78267C13.8906 7.05824 14.2188 7.44886 14.4545 7.95455C14.6903 8.46023 14.8082 9.05682 14.8082 9.74432C14.8082 10.4375 14.6903 11.0384 14.4545 11.5469C14.2188 12.0526 13.892 12.4446 13.4744 12.723C13.0568 12.9986 12.5753 13.1364 12.0298 13.1364C11.6094 13.1364 11.2727 13.0668 11.0199 12.9276C10.767 12.7855 10.5724 12.625 10.4361 12.446C10.2997 12.2642 10.1946 12.1136 10.1207 11.9943H10.0355V15.4545H9.02983ZM10.0185 9.72727C10.0185 10.2216 10.0909 10.6577 10.2358 11.0355C10.3807 11.4105 10.5923 11.7045 10.8707 11.9176C11.1491 12.1278 11.4901 12.233 11.8935 12.233C12.3139 12.233 12.6648 12.1222 12.946 11.9006C13.2301 11.6761 13.4432 11.375 13.5852 10.9972C13.7301 10.6165 13.8026 10.1932 13.8026 9.72727C13.8026 9.26705 13.7315 8.85227 13.5895 8.48295C13.4503 8.1108 13.2386 7.81676 12.9545 7.60085C12.6733 7.3821 12.3196 7.27273 11.8935 7.27273C11.4844 7.27273 11.1406 7.37642 10.8622 7.58381C10.5838 7.78835 10.3736 8.07528 10.2315 8.4446C10.0895 8.81108 10.0185 9.23864 10.0185 9.72727ZM16.3423 15.4545V6.45455H17.3139V7.49432H17.4332C17.5071 7.38068 17.6094 7.2358 17.7401 7.05966C17.8736 6.88068 18.0639 6.72159 18.3111 6.58239C18.5611 6.44034 18.8991 6.36932 19.3253 6.36932C19.8764 6.36932 20.3622 6.5071 20.7827 6.78267C21.2031 7.05824 21.5313 7.44886 21.767 7.95455C22.0028 8.46023 22.1207 9.05682 22.1207 9.74432C22.1207 10.4375 22.0028 11.0384 21.767 11.5469C21.5313 12.0526 21.2045 12.4446 20.7869 12.723C20.3693 12.9986 19.8878 13.1364 19.3423 13.1364C18.9219 13.1364 18.5852 13.0668 18.3324 12.9276C18.0795 12.7855 17.8849 12.625 17.7486 12.446C17.6122 12.2642 17.5071 12.1136 17.4332 11.9943H17.348V15.4545H16.3423ZM17.331 9.72727C17.331 10.2216 17.4034 10.6577 17.5483 11.0355C17.6932 11.4105 17.9048 11.7045 18.1832 11.9176C18.4616 12.1278 18.8026 12.233 19.206 12.233C19.6264 12.233 19.9773 12.1222 20.2585 11.9006C20.5426 11.6761 20.7557 11.375 20.8977 10.9972C21.0426 10.6165 21.1151 10.1932 21.1151 9.72727C21.1151 9.26705 21.044 8.85227 20.902 8.48295C20.7628 8.1108 20.5511 7.81676 20.267 7.60085C19.9858 7.3821 19.6321 7.27273 19.206 7.27273C18.7969 7.27273 18.4531 7.37642 18.1747 7.58381C17.8963 7.78835 17.6861 8.07528 17.544 8.4446C17.402 8.81108 17.331 9.23864 17.331 9.72727ZM23.6548 13V6.45455H24.6264V7.44318H24.6946C24.8139 7.11932 25.0298 6.85653 25.3423 6.65483C25.6548 6.45312 26.0071 6.35227 26.3991 6.35227C26.473 6.35227 26.5653 6.35369 26.6761 6.35653C26.7869 6.35937 26.8707 6.36364 26.9276 6.36932V7.39205C26.8935 7.38352 26.8153 7.37074 26.6932 7.35369C26.5739 7.33381 26.4474 7.32386 26.3139 7.32386C25.9957 7.32386 25.7116 7.39062 25.4616 7.52415C25.2145 7.65483 25.0185 7.83665 24.8736 8.0696C24.7315 8.29972 24.6605 8.5625 24.6605 8.85795V13H23.6548ZM30.5795 13.1364C29.9886 13.1364 29.4702 12.9957 29.0241 12.7145C28.581 12.4332 28.2344 12.0398 27.9844 11.5341C27.7372 11.0284 27.6136 10.4375 27.6136 9.76136C27.6136 9.07955 27.7372 8.48437 27.9844 7.97585C28.2344 7.46733 28.581 7.07244 29.0241 6.79119C29.4702 6.50994 29.9886 6.36932 30.5795 6.36932C31.1705 6.36932 31.6875 6.50994 32.1307 6.79119C32.5767 7.07244 32.9233 7.46733 33.1705 7.97585C33.4205 8.48437 33.5455 9.07955 33.5455 9.76136C33.5455 10.4375 33.4205 11.0284 33.1705 11.5341C32.9233 12.0398 32.5767 12.4332 32.1307 12.7145C31.6875 12.9957 31.1705 13.1364 30.5795 13.1364ZM30.5795 12.233C31.0284 12.233 31.3977 12.1179 31.6875 11.8878C31.9773 11.6577 32.1918 11.3551 32.331 10.9801C32.4702 10.6051 32.5398 10.1989 32.5398 9.76136C32.5398 9.32386 32.4702 8.91619 32.331 8.53835C32.1918 8.16051 31.9773 7.85511 31.6875 7.62216C31.3977 7.3892 31.0284 7.27273 30.5795 7.27273C30.1307 7.27273 29.7614 7.3892 29.4716 7.62216C29.1818 7.85511 28.9673 8.16051 28.8281 8.53835C28.6889 8.91619 28.6193 9.32386 28.6193 9.76136C28.6193 10.1989 28.6889 10.6051 28.8281 10.9801C28.9673 11.3551 29.1818 11.6577 29.4716 11.8878C29.7614 12.1179 30.1307 12.233 30.5795 12.233ZM40.1985 6.45455L37.7781 13H36.7553L34.3349 6.45455H35.4258L37.2326 11.6705H37.3008L39.1076 6.45455H40.1985ZM44.0359 13.1364C43.4052 13.1364 42.8612 12.9972 42.4038 12.7188C41.9492 12.4375 41.5984 12.0455 41.3512 11.5426C41.1069 11.0369 40.9847 10.4489 40.9847 9.77841C40.9847 9.10795 41.1069 8.51705 41.3512 8.00568C41.5984 7.49148 41.9421 7.09091 42.3825 6.80398C42.8256 6.5142 43.3427 6.36932 43.9336 6.36932C44.2745 6.36932 44.6112 6.42614 44.9435 6.53977C45.2759 6.65341 45.5785 6.83807 45.8512 7.09375C46.1239 7.34659 46.3413 7.68182 46.5032 8.09943C46.6651 8.51705 46.7461 9.03125 46.7461 9.64205V10.0682H41.7006V9.19886H45.7234C45.7234 8.82955 45.6495 8.5 45.5018 8.21023C45.3569 7.92045 45.1495 7.69176 44.8796 7.52415C44.6126 7.35653 44.2972 7.27273 43.9336 7.27273C43.533 7.27273 43.1864 7.37216 42.8938 7.57102C42.604 7.76705 42.381 8.02273 42.2248 8.33807C42.0685 8.65341 41.9904 8.99148 41.9904 9.35227V9.93182C41.9904 10.4261 42.0756 10.8452 42.2461 11.1889C42.4194 11.5298 42.6594 11.7898 42.9663 11.9688C43.2731 12.1449 43.6296 12.233 44.0359 12.233C44.3001 12.233 44.5387 12.196 44.7518 12.1222C44.9677 12.0455 45.1538 11.9318 45.31 11.7812C45.4663 11.6278 45.587 11.4375 45.6722 11.2102L46.6438 11.483C46.5415 11.8125 46.3697 12.1023 46.1282 12.3523C45.8867 12.5994 45.5884 12.7926 45.2333 12.9318C44.8782 13.0682 44.479 13.1364 44.0359 13.1364ZM50.7475 13.1364C50.2021 13.1364 49.7205 12.9986 49.3029 12.723C48.8853 12.4446 48.5586 12.0526 48.3228 11.5469C48.087 11.0384 47.9691 10.4375 47.9691 9.74432C47.9691 9.05682 48.087 8.46023 48.3228 7.95455C48.5586 7.44886 48.8867 7.05824 49.3072 6.78267C49.7276 6.5071 50.2134 6.36932 50.7646 6.36932C51.1907 6.36932 51.5273 6.44034 51.7745 6.58239C52.0245 6.72159 52.2148 6.88068 52.3455 7.05966C52.479 7.2358 52.5827 7.38068 52.6566 7.49432H52.7418V4.27273H53.7475V13H52.7759V11.9943H52.6566C52.5827 12.1136 52.4776 12.2642 52.3413 12.446C52.2049 12.625 52.0103 12.7855 51.7575 12.9276C51.5046 13.0668 51.168 13.1364 50.7475 13.1364ZM50.8839 12.233C51.2873 12.233 51.6282 12.1278 51.9066 11.9176C52.185 11.7045 52.3967 11.4105 52.5415 11.0355C52.6864 10.6577 52.7589 10.2216 52.7589 9.72727C52.7589 9.23864 52.6879 8.81108 52.5458 8.4446C52.4038 8.07528 52.1935 7.78835 51.9151 7.58381C51.6367 7.37642 51.293 7.27273 50.8839 7.27273C50.4577 7.27273 50.1026 7.3821 49.8185 7.60085C49.5373 7.81676 49.3256 8.1108 49.1836 8.48295C49.0444 8.85227 48.9748 9.26705 48.9748 9.72727C48.9748 10.1932 49.0458 10.6165 49.1879 10.9972C49.3327 11.375 49.5458 11.6761 49.8271 11.9006C50.1112 12.1222 50.4634 12.233 50.8839 12.233ZM59.2404 13V4.27273H60.2461V7.49432H60.3313C60.4052 7.38068 60.5075 7.2358 60.6381 7.05966C60.7717 6.88068 60.962 6.72159 61.2092 6.58239C61.4592 6.44034 61.7972 6.36932 62.2234 6.36932C62.7745 6.36932 63.2603 6.5071 63.6808 6.78267C64.1012 7.05824 64.4293 7.44886 64.6651 7.95455C64.9009 8.46023 65.0188 9.05682 65.0188 9.74432C65.0188 10.4375 64.9009 11.0384 64.6651 11.5469C64.4293 12.0526 64.1026 12.4446 63.685 12.723C63.2674 12.9986 62.7859 13.1364 62.2404 13.1364C61.82 13.1364 61.4833 13.0668 61.2305 12.9276C60.9776 12.7855 60.783 12.625 60.6467 12.446C60.5103 12.2642 60.4052 12.1136 60.3313 11.9943H60.212V13H59.2404ZM60.229 9.72727C60.229 10.2216 60.3015 10.6577 60.4464 11.0355C60.5913 11.4105 60.8029 11.7045 61.0813 11.9176C61.3597 12.1278 61.7006 12.233 62.104 12.233C62.5245 12.233 62.8754 12.1222 63.1566 11.9006C63.4407 11.6761 63.6538 11.375 63.7958 10.9972C63.9407 10.6165 64.0131 10.1932 64.0131 9.72727C64.0131 9.26705 63.9421 8.85227 63.8001 8.48295C63.6609 8.1108 63.4492 7.81676 63.1651 7.60085C62.8839 7.3821 62.5302 7.27273 62.104 7.27273C61.695 7.27273 61.3512 7.37642 61.0728 7.58381C60.7944 7.78835 60.5842 8.07528 60.4421 8.4446C60.3001 8.81108 60.229 9.23864 60.229 9.72727ZM66.9705 15.4545C66.8001 15.4545 66.6481 15.4403 66.5146 15.4119C66.381 15.3864 66.2887 15.3608 66.2376 15.3352L66.4933 14.4489C66.7376 14.5114 66.9535 14.5341 67.141 14.517C67.3285 14.5 67.4947 14.4162 67.6396 14.2656C67.7873 14.1179 67.9222 13.8778 68.0444 13.5455L68.2319 13.0341L65.8114 6.45455H66.9023L68.7092 11.6705H68.7773L70.5842 6.45455H71.6751L68.8967 13.9545C68.7717 14.2926 68.6168 14.5724 68.4322 14.794C68.2475 15.0185 68.033 15.1847 67.7887 15.2926C67.5472 15.4006 67.2745 15.4545 66.9705 15.4545Z"
        fill="#878787" />
    <g clip-path="url(#clip0_821_1081)">
        <path
            d="M3.53946 36.5046C3.53946 37.7693 3.81401 38.7403 4.17288 39.3277C4.64338 40.0971 5.34515 40.4231 6.0606 40.4231C6.98338 40.4231 7.82756 40.1916 9.4544 37.9167C10.7577 36.0934 12.2934 33.534 13.3267 31.9295L15.0765 29.2112C16.2921 27.3233 17.6991 25.2247 19.3122 23.8022C20.6292 22.6411 22.0498 21.9961 23.4796 21.9961C25.88 21.9961 28.1664 23.4025 29.9163 26.0402C31.8314 28.929 32.761 32.5676 32.761 36.3226C32.761 38.5548 32.3258 40.195 31.5853 41.4909C30.8698 42.7441 29.4754 43.9961 27.1297 43.9961V40.4231C29.1382 40.4231 29.6395 38.5571 29.6395 36.4216C29.6395 33.3785 28.9377 30.0013 27.3917 27.5882C26.2946 25.8766 24.8729 24.8308 23.3087 24.8308C21.6169 24.8308 20.2555 26.1208 18.7255 28.421C17.9121 29.6431 17.0771 31.1324 16.1395 32.813L15.1073 34.6616C13.0339 38.3786 12.5087 39.2252 11.472 40.6224C9.6549 43.0689 8.10326 43.9961 6.0606 43.9961C3.63743 43.9961 2.10515 42.9353 1.15617 41.3365C0.381483 40.0338 0.000976562 38.3245 0.000976562 36.3767L3.53946 36.5046Z"
            fill="#0081FB" />
        <path
            d="M2.79004 26.2924C4.41232 23.7642 6.75346 21.9961 9.43865 21.9961C10.9937 21.9961 12.5397 22.4614 14.154 23.7941C15.9198 25.2512 17.8018 27.6504 20.1498 31.6047L20.9917 33.0237C23.0241 36.447 24.1804 38.2081 24.8571 39.0386C25.7275 40.1052 26.337 40.4231 27.1288 40.4231C29.1373 40.4231 29.6385 38.5571 29.6385 36.4216L32.76 36.3226C32.76 38.5548 32.3248 40.195 31.5843 41.4909C30.8689 42.7441 29.4745 43.9961 27.1288 43.9961C25.6705 43.9961 24.3786 43.6759 22.95 42.3133C21.8518 41.2674 20.5679 39.4095 19.5802 37.7393L16.6421 32.7772C15.1679 30.287 13.8156 28.4302 13.033 27.5894C12.1911 26.6852 11.1088 25.5933 9.38169 25.5933C7.98384 25.5933 6.79675 26.585 5.80333 28.102L2.79004 26.2924Z"
            fill="url(#paint0_linear_821_1081)" />
        <path
            d="M9.38262 25.5933C7.98477 25.5933 6.79769 26.585 5.80427 28.102C4.39958 30.2455 3.53946 33.4384 3.53946 36.5046C3.53946 37.7693 3.81401 38.7403 4.17288 39.3277L1.15617 41.3365C0.381483 40.0338 0.000976562 38.3245 0.000976562 36.3767C0.000976562 32.8348 0.962496 29.1432 2.79098 26.2924C4.41326 23.7642 6.75439 21.9961 9.43958 21.9961L9.38262 25.5933Z"
            fill="url(#paint1_linear_821_1081)" />
        <path
            d="M39.6396 22.6914H43.7329L50.6926 35.4215L57.6533 22.6914H61.6578V43.6087H58.3186V27.5775L52.2146 38.6788H49.0817L42.9788 27.5775V43.6087H39.6396V22.6914ZM72.1205 30.4905C69.7259 30.4905 68.2836 32.3127 67.9384 34.5691H76.0657C75.8983 32.2447 74.5722 30.4905 72.1205 30.4905ZM64.6278 35.8545C64.6278 31.1067 67.6627 27.6512 72.1786 27.6512C76.6205 27.6512 79.2727 31.0629 79.2727 36.1079V37.0352H67.9384C68.3405 39.4897 69.9514 41.1438 72.5489 41.1438C74.6212 41.1438 75.9165 40.5045 77.1446 39.3354L78.9184 41.5319C77.2471 43.0858 75.1213 43.9819 72.4304 43.9819C67.5419 43.9819 64.6278 40.3778 64.6278 35.8545ZM83.3215 30.7899H80.2479V28.0255H83.3215V23.4539H86.5433V28.0255H91.2131V30.7899H86.5433V37.7965C86.5433 40.1889 87.2998 41.0389 89.159 41.0389C90.0078 41.0389 90.4942 40.9652 91.2131 40.8443V43.5787C90.3176 43.8344 89.4632 43.9519 88.5381 43.9519C85.06 43.9519 83.3215 42.0307 83.3215 38.1847V30.7899ZM104.779 33.4783C104.132 31.8266 102.689 30.6103 100.567 30.6103C97.8104 30.6103 96.0457 32.588 96.0457 35.8096C96.0457 38.9507 97.6703 41.024 100.435 41.024C102.609 41.024 104.161 39.7454 104.779 38.1548V33.4783ZM108.001 43.6087H104.838V41.4271C103.954 42.7114 102.346 43.9819 99.7403 43.9819C95.5502 43.9819 92.7499 40.4354 92.7499 35.8096C92.7499 31.1401 95.6174 27.6512 99.918 27.6512C102.044 27.6512 103.712 28.5105 104.838 30.0274V28.0255H108.001V43.6087Z"
            fill="#192830" />
    </g>
    <path
        d="M160.057 4.27273H161.318L164.284 11.517H164.386L167.352 4.27273H168.614V13H167.625V6.36932H167.54L164.812 13H163.858L161.131 6.36932H161.045V13H160.057V4.27273ZM172.522 13.1534C172.108 13.1534 171.731 13.0753 171.393 12.919C171.055 12.7599 170.787 12.5312 170.588 12.233C170.389 11.9318 170.289 11.5682 170.289 11.142C170.289 10.767 170.363 10.4631 170.511 10.2301C170.659 9.99432 170.856 9.80966 171.103 9.67614C171.35 9.54261 171.623 9.44318 171.922 9.37784C172.223 9.30966 172.525 9.25568 172.829 9.21591C173.227 9.16477 173.549 9.12642 173.797 9.10085C174.047 9.07244 174.228 9.02557 174.342 8.96023C174.458 8.89489 174.517 8.78125 174.517 8.61932V8.58523C174.517 8.16477 174.402 7.83807 174.172 7.60511C173.944 7.37216 173.599 7.25568 173.136 7.25568C172.656 7.25568 172.279 7.3608 172.007 7.57102C171.734 7.78125 171.542 8.00568 171.431 8.24432L170.477 7.90341C170.647 7.50568 170.875 7.19602 171.159 6.97443C171.446 6.75 171.758 6.59375 172.096 6.50568C172.437 6.41477 172.772 6.36932 173.102 6.36932C173.312 6.36932 173.554 6.39489 173.826 6.44602C174.102 6.49432 174.368 6.59517 174.623 6.74858C174.882 6.90199 175.096 7.13352 175.267 7.44318C175.437 7.75284 175.522 8.16761 175.522 8.6875V13H174.517V12.1136H174.466C174.397 12.2557 174.284 12.4077 174.125 12.5696C173.966 12.7315 173.754 12.8693 173.49 12.983C173.225 13.0966 172.903 13.1534 172.522 13.1534ZM172.676 12.25C173.074 12.25 173.409 12.1719 173.681 12.0156C173.957 11.8594 174.164 11.6577 174.304 11.4105C174.446 11.1634 174.517 10.9034 174.517 10.6307V9.71023C174.474 9.76136 174.38 9.80824 174.235 9.85085C174.093 9.89062 173.929 9.92614 173.741 9.95739C173.556 9.9858 173.376 10.0114 173.2 10.0341C173.027 10.054 172.886 10.071 172.778 10.0852C172.517 10.1193 172.272 10.1747 172.045 10.2514C171.821 10.3253 171.639 10.4375 171.5 10.5881C171.363 10.7358 171.295 10.9375 171.295 11.1932C171.295 11.5426 171.424 11.8068 171.683 11.9858C171.944 12.1619 172.275 12.25 172.676 12.25ZM179.83 13.1364C179.284 13.1364 178.803 12.9986 178.385 12.723C177.967 12.4446 177.641 12.0526 177.405 11.5469C177.169 11.0384 177.051 10.4375 177.051 9.74432C177.051 9.05682 177.169 8.46023 177.405 7.95455C177.641 7.44886 177.969 7.05824 178.389 6.78267C178.81 6.5071 179.295 6.36932 179.847 6.36932C180.273 6.36932 180.609 6.44034 180.857 6.58239C181.107 6.72159 181.297 6.88068 181.428 7.05966C181.561 7.2358 181.665 7.38068 181.739 7.49432H181.824V4.27273H182.83V13H181.858V11.9943H181.739C181.665 12.1136 181.56 12.2642 181.423 12.446C181.287 12.625 181.092 12.7855 180.839 12.9276C180.587 13.0668 180.25 13.1364 179.83 13.1364ZM179.966 12.233C180.369 12.233 180.71 12.1278 180.989 11.9176C181.267 11.7045 181.479 11.4105 181.624 11.0355C181.768 10.6577 181.841 10.2216 181.841 9.72727C181.841 9.23864 181.77 8.81108 181.628 8.4446C181.486 8.07528 181.276 7.78835 180.997 7.58381C180.719 7.37642 180.375 7.27273 179.966 7.27273C179.54 7.27273 179.185 7.3821 178.901 7.60085C178.619 7.81676 178.408 8.1108 178.266 8.48295C178.126 8.85227 178.057 9.26705 178.057 9.72727C178.057 10.1932 178.128 10.6165 178.27 10.9972C178.415 11.375 178.628 11.6761 178.909 11.9006C179.193 12.1222 179.545 12.233 179.966 12.233ZM187.555 13.1364C186.925 13.1364 186.381 12.9972 185.923 12.7188C185.469 12.4375 185.118 12.0455 184.871 11.5426C184.626 11.0369 184.504 10.4489 184.504 9.77841C184.504 9.10795 184.626 8.51705 184.871 8.00568C185.118 7.49148 185.462 7.09091 185.902 6.80398C186.345 6.5142 186.862 6.36932 187.453 6.36932C187.794 6.36932 188.131 6.42614 188.463 6.53977C188.795 6.65341 189.098 6.83807 189.371 7.09375C189.643 7.34659 189.861 7.68182 190.023 8.09943C190.185 8.51705 190.266 9.03125 190.266 9.64205V10.0682H185.22V9.19886H189.243C189.243 8.82955 189.169 8.5 189.021 8.21023C188.876 7.92045 188.669 7.69176 188.399 7.52415C188.132 7.35653 187.817 7.27273 187.453 7.27273C187.053 7.27273 186.706 7.37216 186.413 7.57102C186.124 7.76705 185.901 8.02273 185.744 8.33807C185.588 8.65341 185.51 8.99148 185.51 9.35227V9.93182C185.51 10.4261 185.595 10.8452 185.766 11.1889C185.939 11.5298 186.179 11.7898 186.486 11.9688C186.793 12.1449 187.149 12.233 187.555 12.233C187.82 12.233 188.058 12.196 188.271 12.1222C188.487 12.0455 188.673 11.9318 188.83 11.7812C188.986 11.6278 189.107 11.4375 189.192 11.2102L190.163 11.483C190.061 11.8125 189.889 12.1023 189.648 12.3523C189.406 12.5994 189.108 12.7926 188.753 12.9318C188.398 13.0682 187.999 13.1364 187.555 13.1364ZM198.085 6.45455V7.30682H194.557V6.45455H198.085ZM195.614 13V5.55114C195.614 5.17614 195.702 4.86364 195.878 4.61364C196.054 4.36364 196.283 4.17614 196.564 4.05114C196.845 3.92614 197.142 3.86364 197.455 3.86364C197.702 3.86364 197.903 3.88352 198.06 3.9233C198.216 3.96307 198.332 4 198.409 4.03409L198.119 4.90341C198.068 4.88636 197.997 4.86506 197.906 4.83949C197.818 4.81392 197.702 4.80114 197.557 4.80114C197.224 4.80114 196.984 4.88494 196.837 5.05256C196.692 5.22017 196.619 5.46591 196.619 5.78977V13H195.614ZM201.884 13.1364C201.293 13.1364 200.775 12.9957 200.329 12.7145C199.886 12.4332 199.539 12.0398 199.289 11.5341C199.042 11.0284 198.918 10.4375 198.918 9.76136C198.918 9.07955 199.042 8.48437 199.289 7.97585C199.539 7.46733 199.886 7.07244 200.329 6.79119C200.775 6.50994 201.293 6.36932 201.884 6.36932C202.475 6.36932 202.992 6.50994 203.435 6.79119C203.881 7.07244 204.228 7.46733 204.475 7.97585C204.725 8.48437 204.85 9.07955 204.85 9.76136C204.85 10.4375 204.725 11.0284 204.475 11.5341C204.228 12.0398 203.881 12.4332 203.435 12.7145C202.992 12.9957 202.475 13.1364 201.884 13.1364ZM201.884 12.233C202.333 12.233 202.702 12.1179 202.992 11.8878C203.282 11.6577 203.496 11.3551 203.636 10.9801C203.775 10.6051 203.844 10.1989 203.844 9.76136C203.844 9.32386 203.775 8.91619 203.636 8.53835C203.496 8.16051 203.282 7.85511 202.992 7.62216C202.702 7.3892 202.333 7.27273 201.884 7.27273C201.435 7.27273 201.066 7.3892 200.776 7.62216C200.487 7.85511 200.272 8.16051 200.133 8.53835C199.994 8.91619 199.924 9.32386 199.924 9.76136C199.924 10.1989 199.994 10.6051 200.133 10.9801C200.272 11.3551 200.487 11.6577 200.776 11.8878C201.066 12.1179 201.435 12.233 201.884 12.233ZM206.385 13V6.45455H207.357V7.44318H207.425C207.544 7.11932 207.76 6.85653 208.073 6.65483C208.385 6.45312 208.738 6.35227 209.13 6.35227C209.203 6.35227 209.296 6.35369 209.407 6.35653C209.517 6.35937 209.601 6.36364 209.658 6.36932V7.39205C209.624 7.38352 209.546 7.37074 209.424 7.35369C209.304 7.33381 209.178 7.32386 209.044 7.32386C208.726 7.32386 208.442 7.39062 208.192 7.52415C207.945 7.65483 207.749 7.83665 207.604 8.0696C207.462 8.29972 207.391 8.5625 207.391 8.85795V13H206.385Z"
        fill="#878787" />
    <path
        d="M164.819 22.1111C162.505 23.079 159.961 25.8104 159.158 29.246C158.139 33.5953 162.375 35.432 162.721 34.8328C163.128 34.122 161.959 33.8835 161.721 31.6283C161.414 28.7121 162.766 25.4539 164.473 24.0242C164.792 23.7629 164.776 24.1317 164.776 24.8115C164.776 26.0376 164.708 37.0073 164.708 39.2975C164.708 42.3977 164.581 43.3739 164.346 44.3378C164.116 45.318 163.743 45.9791 164.024 46.2364C164.342 46.5205 165.695 45.844 166.479 44.7497C167.417 43.439 167.748 41.8636 167.809 40.1539C167.878 38.095 167.874 34.8213 167.878 32.9578C167.878 31.244 167.905 26.2338 167.851 23.2174C167.836 22.4799 165.784 21.7072 164.819 22.1111ZM271.49 38.3865C271.159 38.3865 271.002 38.7325 270.875 39.313C270.437 41.3378 269.976 41.7945 269.379 41.7945C268.715 41.7945 268.119 40.7923 267.962 38.7862C267.843 37.2109 267.861 34.3061 268.015 31.4167C268.046 30.8248 267.884 30.2378 266.293 29.6574C265.606 29.4115 264.61 29.0427 264.114 30.2411C262.711 33.6189 262.166 36.308 262.034 37.3957C262.031 37.4527 261.962 37.4609 261.95 37.3306C261.87 36.4578 261.685 34.871 261.662 31.5356C261.654 30.8908 261.52 30.333 260.797 29.8796C260.332 29.5881 258.918 29.0654 258.406 29.6842C257.968 30.1914 257.458 31.5518 256.923 33.1654C256.493 34.4795 256.193 35.3709 256.193 35.3709C256.193 35.3709 256.196 31.8278 256.204 30.4829C256.204 29.9757 255.858 29.8071 255.755 29.7762C255.282 29.6378 254.347 29.4115 253.956 29.4115C253.468 29.4115 253.352 29.6842 253.352 30.0799C253.352 30.1295 253.272 34.74 253.272 37.964V38.4174C253.006 39.9008 252.131 41.9142 251.181 41.9142C250.232 41.9142 249.782 41.0723 249.782 37.2304C249.782 34.9899 249.851 34.0146 249.882 32.3929C249.901 31.459 249.939 30.7409 249.936 30.5757C249.928 30.0799 249.063 29.8259 248.663 29.7339C248.26 29.6378 247.91 29.6069 247.634 29.6183C247.249 29.6418 246.976 29.8951 246.976 30.2492V30.7865C246.48 30.0033 245.677 29.4571 245.139 29.2999C243.702 28.8733 242.198 29.2535 241.065 30.8362C240.166 32.0973 239.623 33.522 239.412 35.5704C239.254 37.0692 239.305 38.5868 239.585 39.8699C239.247 41.3182 238.624 41.9142 237.944 41.9142C236.952 41.9142 236.238 40.2997 236.319 37.5064C236.376 35.6706 236.741 34.3834 237.144 32.5158C237.318 31.7203 237.175 31.306 236.826 30.9021C236.507 30.5406 235.823 30.3526 234.843 30.5789C234.147 30.7442 233.144 30.9209 232.233 31.056C232.233 31.056 232.287 30.8362 232.333 30.4487C232.567 28.4158 230.357 28.581 229.654 29.2307C229.231 29.6183 228.943 30.0758 228.835 30.8981C228.663 32.2048 229.727 32.8194 229.727 32.8194C229.378 34.4176 228.524 36.5075 227.636 38.0177C227.163 38.8286 226.802 39.4246 226.333 40.062C226.329 39.8276 226.329 39.589 226.329 39.3553C226.321 35.993 226.363 33.3462 226.383 32.3929C226.402 31.459 226.441 30.7597 226.441 30.5944C226.433 30.2329 226.222 30.0912 225.775 29.9219C225.384 29.7688 224.919 29.6574 224.438 29.6183C223.835 29.5727 223.466 29.8951 223.477 30.2753V30.7865C222.978 30.0033 222.174 29.4571 221.644 29.2999C220.202 28.8733 218.7 29.2535 217.566 30.8362C216.67 32.0973 216.078 33.8607 215.909 35.5509C215.756 37.1344 215.783 38.4712 215.998 39.6012C215.767 40.7304 215.11 41.9142 214.365 41.9142C213.415 41.9142 212.873 41.0723 212.873 37.2304C212.873 34.9899 212.942 34.0146 212.977 32.3929C212.996 31.459 213.031 30.7409 213.027 30.5757C213.023 30.0799 212.159 29.8259 211.755 29.7339C211.336 29.6345 210.971 29.6036 210.694 29.6183C210.325 29.6492 210.067 29.9757 210.067 30.2256V30.7865C209.568 30.0033 208.764 29.4571 208.23 29.2999C206.793 28.8733 205.302 29.2617 204.16 30.8362C203.415 31.8628 202.811 33.0035 202.5 35.5321C202.415 36.2624 202.373 36.9455 202.377 37.5838C202.081 39.3968 200.77 41.4875 199.702 41.4875C199.072 41.4875 198.472 40.2729 198.472 37.6798C198.472 34.2295 198.687 29.3113 198.725 28.8351C198.725 28.8351 200.078 28.8114 200.344 28.8082C201.016 28.8041 201.631 28.8196 202.527 28.7732C202.981 28.7504 203.415 27.1327 202.946 26.9292C202.738 26.8404 201.247 26.7598 200.655 26.7484C200.156 26.737 198.775 26.6336 198.775 26.6336C198.775 26.6336 198.899 23.3714 198.926 23.0294C198.949 22.7371 198.58 22.5915 198.365 22.5027C197.845 22.2804 197.38 22.1762 196.834 22.0647C196.07 21.9076 195.728 22.0614 195.663 22.7022C195.562 23.675 195.509 26.5262 195.509 26.5262C194.947 26.5262 193.045 26.4138 192.487 26.4138C191.969 26.4138 191.407 28.6429 192.126 28.6698C192.953 28.7007 194.386 28.7317 195.339 28.7577C195.339 28.7577 195.297 33.7573 195.297 35.2977V35.7739C194.771 38.5054 192.929 39.9814 192.929 39.9814C193.325 38.1716 192.518 36.8152 191.058 35.6706C190.52 35.2439 189.459 34.4404 188.271 33.5684C188.271 33.5684 188.959 32.8887 189.57 31.5282C190.001 30.5635 190.02 29.4538 188.959 29.2112C187.207 28.8082 185.765 30.0953 185.331 31.4704C185.001 32.5312 185.174 33.3226 185.83 34.1408L185.98 34.3256C185.589 35.086 185.043 36.1118 184.585 36.9072C183.306 39.1168 182.341 40.8615 181.614 40.8615C181.03 40.8615 181.038 39.0899 181.038 37.4299C181.038 36.0003 181.145 33.8452 181.23 31.617C181.257 30.8826 180.888 30.4601 180.27 30.0799C179.893 29.8494 179.093 29.396 178.628 29.396C177.937 29.396 175.93 29.488 174.036 34.9631C173.797 35.6551 173.328 36.9113 173.328 36.9113L173.37 30.3257C173.37 30.1718 173.29 30.0262 173.102 29.9219C172.782 29.7493 171.926 29.396 171.172 29.396C170.807 29.396 170.626 29.5653 170.626 29.8991L170.565 40.1964C170.565 40.9804 170.583 41.8946 170.661 42.2944C170.737 42.6941 170.864 43.0206 171.018 43.216C171.172 43.4048 171.352 43.5506 171.645 43.6157C171.917 43.6735 173.42 43.8616 173.497 43.2892C173.593 42.6013 173.597 41.8604 174.385 39.0826C175.615 34.7636 177.214 32.6582 177.967 31.9084C178.102 31.7782 178.252 31.77 178.244 31.9858C178.209 32.9342 178.098 35.2977 178.021 37.307C177.818 42.6901 178.793 43.6849 180.197 43.6849C181.265 43.6849 182.772 42.6208 184.39 39.9317C185.4 38.2522 186.377 36.6117 187.084 35.4247C187.568 35.8773 188.121 36.3658 188.671 36.8885C189.951 38.0983 190.37 39.2511 190.09 40.3429C189.878 41.1798 189.075 42.0404 187.649 41.2034C187.234 40.9608 187.057 40.7728 186.638 40.4959C186.415 40.3461 186.069 40.3038 185.865 40.4577C185.327 40.8615 185.023 41.372 184.847 42.0062C184.681 42.6249 185.3 42.9473 185.942 43.2314C186.492 43.4814 187.676 43.7004 188.432 43.7272C191.38 43.8274 193.741 42.3057 195.382 38.3865C195.678 41.7717 196.926 43.689 199.098 43.689C200.555 43.689 202.012 41.8099 202.65 39.9619C202.83 40.7149 203.103 41.3679 203.453 41.9256C205.129 44.5764 208.38 44.0081 210.01 41.7562C210.517 41.0569 210.594 40.807 210.594 40.807C210.832 42.9327 212.546 43.6808 213.527 43.6808C214.63 43.6808 215.76 43.159 216.555 41.3679C216.651 41.5641 216.751 41.7489 216.867 41.9256C218.539 44.5764 221.79 44.0081 223.423 41.7562C223.497 41.6447 223.566 41.5527 223.623 41.464L223.673 42.8626C223.673 42.8626 222.739 43.7159 222.167 44.2418C219.65 46.5515 217.735 48.3035 217.593 50.3397C217.416 52.9409 219.522 53.9056 221.121 54.0318C222.813 54.167 224.265 53.2331 225.156 51.9191C225.941 50.7663 226.456 48.2881 226.418 45.8367C226.402 44.8532 226.379 43.6084 226.356 42.2675C227.244 41.2457 228.243 39.9464 229.158 38.4256C230.161 36.7729 231.229 34.5479 231.775 32.8154C231.775 32.8154 232.709 32.8235 233.701 32.7617C234.02 32.7421 234.112 32.8081 234.05 33.0384C233.981 33.3185 232.798 37.8874 233.878 40.9307C234.62 43.0125 236.283 43.6849 237.275 43.6849C238.432 43.6849 239.539 42.8089 240.131 41.5104C240.204 41.6528 240.277 41.7945 240.362 41.9256C242.034 44.5764 245.273 44.0041 246.918 41.7562C247.291 41.2457 247.499 40.807 247.499 40.807C247.853 43.0092 249.567 43.689 250.547 43.689C251.573 43.689 252.541 43.2705 253.329 41.4102C253.36 42.2292 253.41 42.8977 253.495 43.1085C253.544 43.2396 253.837 43.4008 254.044 43.4814C254.982 43.8274 255.935 43.6621 256.285 43.5889C256.531 43.5392 256.723 43.3471 256.746 42.8398C256.815 41.5104 256.773 39.278 257.176 37.6147C257.857 34.8328 258.487 33.7533 258.787 33.2192C258.953 32.9188 259.144 32.8691 259.148 33.1842C259.16 33.8257 259.195 35.7088 259.459 38.2449C259.648 40.1043 259.906 41.2067 260.105 41.5568C260.666 42.5516 261.366 42.598 261.931 42.598C262.292 42.598 263.046 42.4979 262.98 41.8637C262.946 41.5568 263.003 39.6468 263.668 36.904C264.106 35.1096 264.833 33.4919 265.094 32.9C265.194 32.6811 265.236 32.8504 265.236 32.8846C265.179 34.118 265.056 38.1561 265.555 40.3616C266.24 43.3552 268.211 43.689 268.899 43.689C270.363 43.689 271.567 42.5744 271.97 39.6395C272.07 38.932 271.924 38.3865 271.49 38.3865ZM210.036 36.5733C209.956 38.1251 209.652 39.4245 209.168 40.3656C208.284 42.0753 206.544 42.6134 205.778 40.1507C205.221 38.3718 205.409 35.9432 205.644 34.6325C205.982 32.6883 206.839 31.3132 208.176 31.4394C209.545 31.5746 210.213 33.338 210.036 36.5733ZM223.446 36.5962C223.37 38.06 222.989 39.5352 222.574 40.3656C221.717 42.0867 219.926 42.6249 219.184 40.1507C218.677 38.4557 218.796 36.2697 219.049 34.8938C219.377 33.1035 220.164 31.4394 221.583 31.4394C222.963 31.4394 223.643 32.9537 223.446 36.5962ZM223.796 46.6011C223.777 49.2796 223.358 51.6235 222.458 52.3074C221.175 53.2754 219.449 52.5451 219.807 50.5936C220.122 48.8644 221.617 47.101 223.801 44.9451C223.801 44.9451 223.808 45.4369 223.796 46.6011H223.796ZM246.95 36.6116C246.872 38.222 246.515 39.4782 246.073 40.3656C245.216 42.0867 243.44 42.6208 242.683 40.1507C242.272 38.8017 242.252 36.5498 242.549 34.6716C242.848 32.7575 243.69 31.3132 245.081 31.4394C246.457 31.5705 247.099 33.338 246.95 36.6116Z"
        fill="#4E4A4A" />
    <defs>
        <linearGradient id="paint0_linear_821_1081" x1="6.94941" y1="35.4725" x2="29.5076" y2="36.5994"
            gradientUnits="userSpaceOnUse">
            <stop stop-color="#0064E1" />
            <stop offset="0.4" stop-color="#0064E1" />
            <stop offset="0.83" stop-color="#0073EE" />
            <stop offset="1" stop-color="#0082FB" />
        </linearGradient>
        <linearGradient id="paint1_linear_821_1081" x1="5.12756" y1="38.0066" x2="5.12756" y2="29.5982"
            gradientUnits="userSpaceOnUse">
            <stop stop-color="#0082FB" />
            <stop offset="1" stop-color="#0064E0" />
        </linearGradient>
        <clipPath id="clip0_821_1081">
            <rect width="108" height="22" fill="white" transform="translate(0 22)" />
        </clipPath>
    </defs>
</svg>